<?xml version="1.0" encoding="UTF-8" standalone="no"?>
<!-- Created with Inkscape (http://www.inkscape.org/) -->

<svg
   xmlns:dc="http://purl.org/dc/elements/1.1/"
   xmlns:cc="http://creativecommons.org/ns#"
   xmlns:rdf="http://www.w3.org/1999/02/22-rdf-syntax-ns#"
   xmlns:svg="http://www.w3.org/2000/svg"
   xmlns="http://www.w3.org/2000/svg"
   xmlns:sodipodi="http://sodipodi.sourceforge.net/DTD/sodipodi-0.dtd"
   xmlns:inkscape="http://www.inkscape.org/namespaces/inkscape"
   width="210mm"
   height="297mm"
   viewBox="0 0 210 297"
   version="1.1"
   id="svg5"
   inkscape:version="0.92.4 (5da689c313, 2019-01-14)"
   sodipodi:docname="robotika.svg"
   inkscape:export-filename="D:\_érettségi\feladatok\emelt_vektorgrafika\v2\megoldas\rajz.png"
   inkscape:export-xdpi="99.967148"
   inkscape:export-ydpi="99.967148">
  <metadata
     id="metadata4804">
    <rdf:RDF>
      <cc:Work
         rdf:about="">
        <dc:format>image/svg+xml</dc:format>
        <dc:type
           rdf:resource="http://purl.org/dc/dcmitype/StillImage" />
        <dc:title></dc:title>
      </cc:Work>
    </rdf:RDF>
  </metadata>
  <sodipodi:namedview
     id="namedview7"
     pagecolor="#ffffff"
     bordercolor="#666666"
     borderopacity="1.0"
     inkscape:pageshadow="2"
     inkscape:pageopacity="0.0"
     inkscape:pagecheckerboard="0"
     inkscape:document-units="mm"
     showgrid="false"
     inkscape:zoom="0.75009824"
     inkscape:cx="535.26322"
     inkscape:cy="517.93216"
     inkscape:window-width="1920"
     inkscape:window-height="1017"
     inkscape:window-x="-8"
     inkscape:window-y="-8"
     inkscape:window-maximized="1"
     inkscape:current-layer="g1208" />
  <defs
     id="defs2" />
  <g
     inkscape:label="Réteg 1"
     inkscape:groupmode="layer"
     id="layer1">
    <g
       id="g9271"
       transform="matrix(1.0000247,0,0,1.0000158,-3.8233601e-4,-1.0018896e-4)"
       inkscape:export-filename="D:\_érettségi\feladatok\emelt_vektorgrafika\_munka\g9271.png"
       inkscape:export-xdpi="99.967148"
       inkscape:export-ydpi="99.967148">
      <g
         id="g1184">
        <g
           id="g1208">
          <rect
             style="fill:#ffffff;fill-opacity:1;stroke:#000000;stroke-width:0.95430398;stroke-linecap:round;stroke-linejoin:miter;stroke-miterlimit:4;stroke-dasharray:none;stroke-dashoffset:0;stroke-opacity:1;paint-order:markers fill stroke"
             id="rect19567"
             width="169.04149"
             height="269.04144"
             x="20.122852"
             y="17.704466"
             ry="0"
             inkscape:export-xdpi="99"
             inkscape:export-ydpi="99" />
          <rect
             style="fill:#008080;fill-opacity:1;stroke:#000000;stroke-width:1.24398994;stroke-linecap:round;stroke-linejoin:miter;stroke-miterlimit:4;stroke-dasharray:none;stroke-dashoffset:0;stroke-opacity:1;paint-order:markers fill stroke"
             id="rect14899"
             width="126.104"
             height="72.872391"
             x="41.632885"
             y="206.82603" />
          <rect
             style="fill:#cccccc;fill-opacity:1;stroke:#000000;stroke-width:1;stroke-linecap:butt;stroke-linejoin:miter;stroke-miterlimit:4;stroke-dasharray:none;stroke-dashoffset:0;stroke-opacity:1;paint-order:markers fill stroke"
             id="rect8553"
             width="11.640142"
             height="27.865795"
             x="76.278687"
             y="196.96141"
             transform="rotate(-20.486259)" />
          <rect
             style="fill:#cccccc;fill-opacity:1;stroke:#000000;stroke-width:1;stroke-linecap:butt;stroke-linejoin:miter;stroke-miterlimit:4;stroke-dasharray:none;stroke-dashoffset:0;stroke-opacity:1;paint-order:markers fill stroke"
             id="rect8635"
             width="7.43857"
             height="26.133345"
             x="78.379471"
             y="224.82721"
             transform="rotate(-20.486259)" />
          <circle
             style="fill:#cccccc;fill-opacity:1;stroke:#000000;stroke-width:1;stroke-linecap:butt;stroke-linejoin:miter;stroke-miterlimit:4;stroke-dasharray:none;stroke-dashoffset:0;stroke-opacity:1;paint-order:markers fill stroke"
             id="path8047"
             cx="143.23178"
             cy="151.92253"
             r="11.510803" />
          <path
             id="path1637"
             style="fill:#cccccc;fill-opacity:1;stroke:#000000;stroke-width:1.02684999;stroke-linecap:butt;stroke-linejoin:miter;stroke-miterlimit:4;stroke-dasharray:none;stroke-dashoffset:0;stroke-opacity:1;paint-order:markers fill stroke"
             d="m 163.37947,199.24597 a 7.1199903,7.5375553 0 0 1 7.11999,7.53768 7.1199903,7.5375553 0 0 1 -5.52952,5.85391 v -4.82639 h -3.48779 v 4.50153 a 7.1199903,7.5375553 0 0 1 -5.22267,-5.52905 7.1199903,7.5375553 0 0 1 7.11999,-7.53768 z"
             inkscape:connector-curvature="0" />
          <g
             id="g14640"
             transform="matrix(-0.93675615,-0.34998273,-0.34998273,0.93675615,267.26022,78.633408)"
             style="fill:#cccccc">
            <rect
               style="opacity:1;fill:#cccccc;fill-opacity:1;stroke:#000000;stroke-width:1;stroke-linecap:butt;stroke-linejoin:miter;stroke-miterlimit:4;stroke-dasharray:none;stroke-dashoffset:0;stroke-opacity:1;paint-order:markers fill stroke"
               id="rect14636"
               width="11.640142"
               height="27.865795"
               x="158.02826"
               y="143.56175" />
            <rect
               style="opacity:1;fill:#cccccc;fill-opacity:1;stroke:#000000;stroke-width:1;stroke-linecap:butt;stroke-linejoin:miter;stroke-miterlimit:4;stroke-dasharray:none;stroke-dashoffset:0;stroke-opacity:1;paint-order:markers fill stroke"
               id="rect14638"
               width="7.43857"
               height="26.133345"
               x="160.12904"
               y="171.42755" />
          </g>
          <circle
             style="fill:#cccccc;fill-opacity:1;stroke:#000000;stroke-width:1;stroke-linecap:butt;stroke-linejoin:miter;stroke-miterlimit:4;stroke-dasharray:none;stroke-dashoffset:0;stroke-opacity:1;paint-order:markers fill stroke"
             id="circle14642"
             cx="-66.137993"
             cy="151.92253"
             r="11.510803"
             transform="scale(-1,1)" />
          <path
             id="circle14644"
             style="fill:#cccccc;fill-opacity:1;stroke:#000000;stroke-width:1.02684999;stroke-linecap:butt;stroke-linejoin:miter;stroke-miterlimit:4;stroke-dasharray:none;stroke-dashoffset:0;stroke-opacity:1;paint-order:markers fill stroke"
             d="m 45.907782,199.24597 a 7.1199903,7.5375553 0 0 0 -7.120044,7.53768 7.1199903,7.5375553 0 0 0 5.52956,5.85391 v -4.82639 h 3.487823 v 4.50153 a 7.1199903,7.5375553 0 0 0 5.222705,-5.52905 7.1199903,7.5375553 0 0 0 -7.120044,-7.53768 z"
             inkscape:connector-curvature="0" />
          <path
             sodipodi:type="star"
             style="opacity:1;fill:#cccccc;fill-opacity:1;stroke:#000000;stroke-width:7.97432995;stroke-linecap:butt;stroke-linejoin:miter;stroke-miterlimit:4;stroke-dasharray:none;stroke-dashoffset:0;stroke-opacity:1;paint-order:markers fill stroke"
             id="path4179"
             inkscape:flatsided="true"
             sodipodi:sides="3"
             sodipodi:cx="-249.30069"
             sodipodi:cy="-6.6657939"
             sodipodi:r1="54.415092"
             sodipodi:r2="27.207546"
             sodipodi:arg1="0.52359878"
             sodipodi:arg2="1.5707963"
             inkscape:rounded="0"
             inkscape:randomized="0"
             transform="matrix(0.10820874,0,0,0.28483127,131.6614,67.056782)"
             inkscape:transform-center-y="-3.87478"
             d="m -202.17584,20.541753 -94.2497,-1e-6 47.12485,-81.622638 z" />
          <rect
             style="fill:#cccccc;fill-opacity:1;stroke:#000000;stroke-width:1.27868998;stroke-linecap:butt;stroke-linejoin:miter;stroke-miterlimit:4;stroke-dasharray:none;stroke-dashoffset:0;stroke-opacity:1;paint-order:markers fill stroke"
             id="rect7054"
             width="29.05835"
             height="21.456665"
             x="90.155716"
             y="126.43466" />
          <rect
             style="fill:#cccccc;fill-opacity:1;stroke:#000000;stroke-width:1;stroke-linecap:butt;stroke-linejoin:miter;stroke-miterlimit:4;stroke-dasharray:none;stroke-dashoffset:0;stroke-opacity:1"
             id="rect3604"
             width="99.980698"
             height="56.962692"
             x="54.694534"
             y="71.624405"
             rx="10.036254" />
          <ellipse
             style="fill:#ffffff;fill-opacity:1;stroke:#000000;stroke-width:0.97355503;stroke-linecap:butt;stroke-linejoin:miter;stroke-miterlimit:4;stroke-dasharray:none;stroke-dashoffset:0;stroke-opacity:1"
             id="path3860"
             cx="119.84879"
             cy="93.206627"
             rx="10.512951"
             ry="10.513049" />
          <ellipse
             style="vector-effect:none;fill:#000000;fill-opacity:1;stroke:#000000;stroke-width:0.79184401;stroke-linecap:butt;stroke-linejoin:miter;stroke-miterlimit:4;stroke-dasharray:none;stroke-dashoffset:0;stroke-opacity:1"
             id="circle3964"
             cx="119.84879"
             cy="97.439903"
             rx="4.6039572"
             ry="4.6039991" />
          <ellipse
             style="fill:#ffffff;fill-opacity:1;stroke:#000000;stroke-width:0.97355503;stroke-linecap:butt;stroke-linejoin:miter;stroke-miterlimit:4;stroke-dasharray:none;stroke-dashoffset:0;stroke-opacity:1"
             id="circle3988"
             cx="88.839775"
             cy="93.206627"
             rx="10.512951"
             ry="10.513049" />
          <ellipse
             style="vector-effect:none;fill:#000000;fill-opacity:1;stroke:#000000;stroke-width:0.79184401;stroke-linecap:butt;stroke-linejoin:miter;stroke-miterlimit:4;stroke-dasharray:none;stroke-dashoffset:0;stroke-opacity:1"
             id="circle3990"
             cx="88.839775"
             cy="97.439903"
             rx="4.6039572"
             ry="4.6039991" />
          <circle
             style="fill:#008080;fill-opacity:1;stroke:#000000;stroke-width:1;stroke-linecap:butt;stroke-linejoin:miter;stroke-miterlimit:4;stroke-dasharray:none;stroke-dashoffset:0;stroke-opacity:1"
             id="circle4382"
             cx="104.68488"
             cy="44.331551"
             r="7.936461" />
          <g
             id="g5670"
             transform="matrix(1.2027659,0,0,1,-1.6611471,22.673669)">
            <path
               style="opacity:1;fill:none;fill-opacity:1;stroke:#000000;stroke-width:1.70000005;stroke-linecap:butt;stroke-linejoin:miter;stroke-miterlimit:4;stroke-dasharray:none;stroke-dashoffset:0;stroke-opacity:1;paint-order:markers fill stroke"
               id="path4909"
               sodipodi:type="arc"
               sodipodi:cx="-94.842804"
               sodipodi:cy="-17.38035"
               sodipodi:rx="9.2781038"
               sodipodi:ry="9.2781038"
               sodipodi:start="1.7143797"
               sodipodi:end="4.4821695"
               sodipodi:arc-type="arc"
               sodipodi:open="true"
               transform="rotate(-177.40646)"
               d="m -96.170413,-8.1977216 a 9.2781038,9.2781038 0 0 1 -7.941787,-8.7808444 9.2781038,9.2781038 0 0 1 7.152214,-9.435098" />
            <path
               style="opacity:1;fill:none;fill-opacity:1;stroke:#000000;stroke-width:1.70000005;stroke-linecap:butt;stroke-linejoin:miter;stroke-miterlimit:4;stroke-dasharray:none;stroke-dashoffset:0;stroke-opacity:1;paint-order:markers fill stroke"
               id="path5583"
               sodipodi:type="arc"
               sodipodi:cx="-99.08783"
               sodipodi:cy="-15.75262"
               sodipodi:rx="11.193913"
               sodipodi:ry="14.744161"
               sodipodi:start="1.7143797"
               sodipodi:end="4.4821695"
               sodipodi:arc-type="arc"
               sodipodi:open="true"
               transform="matrix(-0.99822068,-0.05962785,0.03432855,-0.9994106,0,0)"
               d="m -100.68957,-1.1601823 a 11.193913,14.744161 0 0 1 -9.58167,-13.9539487 11.193913,14.744161 0 0 1 8.62906,-14.993644" />
            <path
               style="opacity:1;fill:none;fill-opacity:1;stroke:#000000;stroke-width:1.70000005;stroke-linecap:butt;stroke-linejoin:miter;stroke-miterlimit:4;stroke-dasharray:none;stroke-dashoffset:0;stroke-opacity:1;paint-order:markers fill stroke"
               id="path5585"
               sodipodi:type="arc"
               sodipodi:cx="-105.43438"
               sodipodi:cy="-13.067241"
               sodipodi:rx="10.968772"
               sodipodi:ry="19.723934"
               sodipodi:start="1.7143797"
               sodipodi:end="4.4821695"
               sodipodi:arc-type="arc"
               sodipodi:open="true"
               transform="matrix(-0.99667935,-0.08142649,0.02510654,-0.99968478,0,0)"
               d="m -107.00391,6.4537264 a 10.968772,19.723934 0 0 1 -9.38895,-18.6668314 10.968772,19.723934 0 0 1 8.4555,-20.05768" />
          </g>
          <path
             style="fill:none;stroke:#1a1a1a;stroke-width:1.72955;stroke-linecap:butt;stroke-linejoin:miter;stroke-miterlimit:4;stroke-dasharray:none;stroke-opacity:1"
             d="M 67.622341,111.03097 H 90.51008 l 7.542556,9.88117 h 19.506624 l 2.86097,-5.29348 h 21.3272"
             id="path9123"
             sodipodi:nodetypes="cccccc"
             inkscape:connector-curvature="0" />
          <rect
             style="fill:#cccccc;fill-opacity:1;stroke:#000000;stroke-width:1.13459003;stroke-linecap:butt;stroke-linejoin:miter;stroke-miterlimit:4;stroke-dasharray:none;stroke-dashoffset:0;stroke-opacity:1;paint-order:markers fill stroke"
             id="rect7787"
             width="74.227562"
             height="59.084473"
             x="67.571106"
             y="147.80476" />
          <rect
             style="fill:#ffffff;fill-opacity:1;stroke:#000000;stroke-width:1;stroke-linecap:butt;stroke-linejoin:miter;stroke-miterlimit:4;stroke-dasharray:none;stroke-dashoffset:0;stroke-opacity:1"
             id="rect15310"
             width="60.809841"
             height="49.022598"
             x="74.279968"
             y="153.0425"
             rx="6.1042085" />
          <path
             style="fill:#008080;stroke-width:0.0496126"
             d="m 84.810494,197.09786 c -0.257446,-0.12251 -0.161102,0.44232 -1.051626,-6.16485 -0.07665,-0.56862 -0.202052,-1.49909 -0.278693,-2.06772 -0.07665,-0.56863 -0.225525,-1.66987 -0.330863,-2.44724 -0.105324,-0.77736 -0.253412,-1.87274 -0.329057,-2.43416 -0.07568,-0.56143 -0.190774,-1.40989 -0.255833,-1.8855 -0.06503,-0.47558 -0.182574,-1.34558 -0.261138,-1.93328 -0.0786,-0.58772 -0.152596,-1.07944 -0.164529,-1.09272 -0.02939,-0.0327 -0.03184,-0.0242 -0.333021,1.19203 -0.14578,0.58868 -0.296737,1.12414 -0.335452,1.18993 -0.03866,0.0657 -0.147578,0.14348 -0.2419,0.17264 -0.108099,0.0334 -1.366349,0.0531 -3.404168,0.0533 l -3.232669,3e-4 v -0.5231 -0.52311 l 3.085813,-0.0135 3.085803,-0.0136 0.537545,-2.17242 c 0.295644,-1.19483 0.567287,-2.22332 0.603647,-2.28552 0.09823,-0.1681 0.363447,-0.25202 0.522333,-0.16529 0.245972,0.13427 0.284131,0.26524 0.462378,1.58708 0.09315,0.69099 0.232166,1.72158 0.308876,2.2902 0.07675,0.56862 0.203282,1.51088 0.281288,2.09389 0.07802,0.58302 0.162303,1.20138 0.18731,1.37413 0.025,0.17275 0.108681,0.7852 0.185941,1.36103 0.218077,1.62536 0.507393,3.77167 0.659764,4.89447 0.07616,0.56143 0.173922,1.29169 0.217197,1.62279 0.07665,0.58682 0.155086,0.9027 0.158212,0.63745 7.8e-4,-0.0668 0.03271,-0.53798 0.07097,-1.04694 0.07362,-0.97906 0.198138,-2.67257 0.353937,-4.81218 0.05185,-0.71258 0.115229,-1.57827 0.140762,-1.92375 0.02558,-0.34551 0.08934,-1.21709 0.141779,-1.93686 0.05243,-0.71978 0.137686,-1.88582 0.189416,-2.5912 0.09296,-1.26757 0.11809,-1.61171 0.349748,-4.78979 0.06504,-0.89253 0.139337,-1.90545 0.165075,-2.25094 0.02578,-0.34549 0.08886,-1.2053 0.140187,-1.91068 0.126466,-1.73636 0.26716,-3.65282 0.374626,-5.10297 l 0.08915,-1.20309 0.145626,-0.14485 c 0.228317,-0.22712 0.569121,-0.17287 0.70627,0.11245 0.0251,0.0522 0.13091,1.12868 0.235164,2.39222 0.104261,1.26352 0.274444,3.32202 0.37819,4.57442 0.103759,1.25243 0.294298,3.56094 0.42344,5.13006 0.129142,1.56911 0.296648,3.60294 0.372234,4.5196 0.07558,0.91665 0.148661,1.67916 0.162391,1.69444 0.01376,0.0153 0.08416,-0.0824 0.156492,-0.21713 0.554466,-1.03238 0.852404,-1.52686 0.954684,-1.58447 0.09188,-0.0518 1.0805,-0.0662 4.572477,-0.0668 2.450376,-4.1e-4 4.455206,-0.0166 4.455206,-0.0362 0,-0.0194 -0.39779,-0.4847 -0.88397,-1.03385 -2.653039,-2.9966 -4.025285,-5.4729 -4.402364,-7.94429 -0.07734,-0.50656 -0.103393,-1.59755 -0.04873,-2.03702 0.392406,-3.1551 2.276898,-5.27681 5.021984,-5.65413 0.52937,-0.0727 1.576054,-0.0313 2.045224,0.0809 1.29887,0.31074 2.41093,1.07981 3.18206,2.20064 0.14911,0.21674 0.27809,0.3941 0.28663,0.3941 0.009,0 0.10129,-0.12925 0.20609,-0.28721 1.14948,-1.73223 2.86603,-2.60068 4.80613,-2.43153 2.89408,0.25232 4.97179,2.19988 5.49722,5.15289 0.10791,0.60644 0.0858,2.07799 -0.0414,2.75506 -0.36561,1.94527 -1.38336,4.02897 -3.06199,6.26896 -0.48789,0.65107 -1.73595,2.15102 -1.98005,2.37968 -0.084,0.0788 -0.14492,0.15191 -0.13522,0.16254 0.0103,0.0112 2.20765,0.0367 4.88431,0.0578 3.96613,0.0313 4.88464,0.0516 4.96394,0.10922 0.0536,0.039 0.27275,0.4301 0.48718,0.86927 0.21443,0.43915 0.4065,0.81839 0.42679,0.84275 0.0524,0.0629 0.0691,-0.0861 0.30408,-2.74019 0.32169,-3.63142 0.94376,-10.61464 1.15184,-12.92981 l 0.18583,-2.06771 0.14363,-0.14396 c 0.16437,-0.16477 0.39082,-0.19039 0.5545,-0.0627 0.20073,0.15651 0.16979,-0.0933 0.43402,3.50458 0.0529,0.71978 0.12692,1.7327 0.16459,2.25093 0.13715,1.88733 0.21143,2.90519 0.30459,4.17472 0.0523,0.71258 0.13752,1.87862 0.1894,2.5912 0.0519,0.71257 0.11524,1.57826 0.14076,1.92377 0.0256,0.34549 0.0893,1.21707 0.14179,1.93685 0.0524,0.71977 0.13689,1.87403 0.18765,2.56502 0.0508,0.69099 0.13483,1.84526 0.1868,2.56502 0.11226,1.55368 0.16063,2.20841 0.28434,3.84592 0.0511,0.67569 0.0928,1.34115 0.0928,1.47881 0,0.13765 0.0211,0.25028 0.047,0.25028 0.0259,0 0.047,-0.0183 0.047,-0.0405 0,-0.0712 2.06589,-15.00425 2.09337,-15.13155 0.0953,-0.44206 0.67524,-0.50103 0.85684,-0.0871 0.0254,0.0575 0.2748,1.0175 0.55453,2.13315 l 0.50857,2.02847 h 2.74243 2.74244 v 0.5246 0.5246 l -3.00828,-0.0143 -3.00827,-0.0142 -0.11994,-0.13356 c -0.0934,-0.10387 -0.17777,-0.36513 -0.38049,-1.1771 -0.25374,-1.01628 -0.28236,-1.11223 -0.31825,-1.0668 -0.0143,0.0181 -0.15744,1.01429 -0.41296,2.87476 -0.0257,0.18714 -0.065,0.46981 -0.0874,0.62817 -0.0223,0.15835 -0.0845,0.60592 -0.13811,0.9946 -1.42174,10.29452 -1.78373,12.83281 -1.84123,12.90998 -0.0362,0.0487 -0.13624,0.12115 -0.22229,0.16119 -0.13889,0.0646 -0.1758,0.0623 -0.32915,-0.0212 -0.095,-0.0517 -0.19647,-0.15288 -0.22551,-0.22486 -0.0291,-0.0721 -0.0984,-0.7669 -0.15425,-1.54425 -0.0557,-0.77737 -0.12148,-1.67251 -0.14599,-1.98921 -0.0245,-0.31671 -0.0877,-1.1765 -0.1403,-1.91069 -0.0526,-0.73416 -0.13778,-1.90609 -0.18913,-2.60427 -0.162,-2.2027 -0.28121,-3.82892 -0.35302,-4.81597 -0.0384,-0.52544 -0.10072,-1.38525 -0.13898,-1.91067 -0.0384,-0.52545 -0.11225,-1.53837 -0.16458,-2.25095 -0.0523,-0.71258 -0.13752,-1.87861 -0.1894,-2.59119 -0.0519,-0.71258 -0.11543,-1.57829 -0.1412,-1.92378 -0.0258,-0.34548 -0.10163,-1.37019 -0.16855,-2.27711 -0.0669,-0.90692 -0.12934,-1.65761 -0.13865,-1.66821 -0.031,-0.0352 -0.0628,0.22038 -0.13595,1.09239 -0.087,1.03701 -0.61679,7.03287 -0.68684,7.77359 -0.0272,0.28792 -0.13122,1.43955 -0.23109,2.55921 -0.199,2.23101 -0.20473,2.25729 -0.51485,2.3563 -0.29361,0.0937 -0.41005,-0.0286 -0.8231,-0.86472 -0.71694,-1.45127 -1.07434,-2.16651 -1.09559,-2.19246 -0.0118,-0.0144 -2.4336,-0.0379 -5.38177,-0.0523 l -5.36034,-0.0261 -0.13719,-0.17095 c -0.0908,-0.1132 -0.13718,-0.22739 -0.13718,-0.33814 0,-0.14873 0.11863,-0.29738 1.07518,-1.34712 1.62845,-1.78715 2.49079,-2.91058 3.35556,-4.37155 1.1001,-1.85857 1.64807,-3.57226 1.6492,-5.15781 0.002,-2.40265 -1.24286,-4.31372 -3.2822,-5.03983 -1.71925,-0.61213 -3.22434,-0.40882 -4.45577,0.60191 -0.40278,0.33057 -0.89623,0.92512 -1.16575,1.40457 -0.47935,0.85276 -0.48387,0.85897 -0.65575,0.90511 -0.21948,0.0589 -0.40655,-0.0273 -0.50742,-0.23395 -0.39111,-0.80104 -0.96061,-1.57466 -1.48482,-2.01702 -0.37148,-0.31347 -1.0399,-0.66732 -1.53992,-0.8152 -0.34307,-0.10151 -0.51274,-0.11655 -1.310994,-0.1168 -0.79316,-1.9e-4 -0.97276,0.0155 -1.331,0.1163 -1.65196,0.46506 -2.792309,1.66847 -3.325264,3.50916 -0.666434,2.30167 -0.07735,4.72636 1.837944,7.56447 0.82506,1.22263 1.81747,2.42311 3.300304,3.99225 0.71581,0.75748 0.74057,0.79068 0.74057,0.99348 0,0.27031 -0.10004,0.42492 -0.31877,0.49253 -0.11506,0.0355 -1.848934,0.0547 -5.065106,0.0558 l -4.890157,0.001 -0.286047,0.53513 c -0.715155,1.33793 -1.211818,2.22074 -1.316413,2.33995 -0.175337,0.19981 -0.457574,0.18203 -0.635832,-0.0401 -0.07499,-0.0934 -0.136251,-0.22262 -0.136251,-0.28724 0,-0.0646 -0.0954,-1.2715 -0.21211,-2.68198 -0.116664,-1.41048 -0.275432,-3.33008 -0.352833,-4.26579 -0.07744,-0.93571 -0.227782,-2.77311 -0.334203,-4.0831 -0.106409,-1.30999 -0.209298,-2.40103 -0.228621,-2.42451 -0.01935,-0.0235 -0.0496,0.17673 -0.06718,0.44494 -0.01768,0.26822 -0.07295,1.04125 -0.122893,1.71782 -0.110737,1.49996 -0.246989,3.35858 -0.374149,5.10389 -0.05244,0.71977 -0.116244,1.59136 -0.141787,1.93685 -0.02558,0.3455 -0.08886,1.2112 -0.140763,1.92376 -0.05183,0.71258 -0.137119,1.87863 -0.189417,2.59121 -0.05234,0.71258 -0.125883,1.71961 -0.163552,2.23785 -0.07753,1.06649 -0.157372,2.1585 -0.329252,4.50187 -0.06542,0.89254 -0.149942,2.0468 -0.18774,2.56504 -0.230789,3.16473 -0.211698,3.00683 -0.383785,3.17366 -0.129377,0.12542 -0.30365,0.15237 -0.470865,0.0728 z"
             id="path18945"
             inkscape:connector-curvature="0" />
          <g
             aria-label="Robotika-  szakkör"
             id="text6954"
             style="font-size:34.79959869px;line-height:1;font-family:'Bebas Neue';-inkscape-font-specification:'Bebas Neue';text-align:center;letter-spacing:0px;word-spacing:0px;text-anchor:middle;stroke:#000000;stroke-width:0.46606499"
             transform="translate(-3.5204044)">
            <path
               d="m 53.880198,216.16469 h 5.672334 q 2.957966,0 4.315151,1.39199 1.357184,1.35718 1.357184,4.21075 v 1.49638 q 0,3.79316 -2.505571,4.80235 v 0.0696 q 1.391984,0.41759 1.948777,1.70518 0.591593,1.28758 0.591593,3.44516 v 4.28035 q 0,1.04399 0.0696,1.70518 0.0696,0.62639 0.347996,1.25278 h -3.897555 q -0.208798,-0.59159 -0.278397,-1.11358 -0.0696,-0.522 -0.0696,-1.87918 v -4.45435 q 0,-1.67038 -0.556794,-2.33157 -0.521994,-0.6612 -1.844379,-0.6612 h -1.322384 v 10.43988 h -3.827956 z m 5.219939,10.43988 q 1.148387,0 1.705181,-0.59159 0.591593,-0.59159 0.591593,-1.98358 v -1.87917 q 0,-1.32239 -0.487194,-1.91398 -0.452395,-0.5916 -1.461584,-0.5916 h -1.739979 v 6.95992 z"
               id="path907"
               inkscape:connector-curvature="0" />
            <path
               d="m 73.437568,240.87241 q -2.818768,0 -4.315151,-1.60078 -1.496382,-1.60078 -1.496382,-4.52395 v -12.80625 q 0,-2.92317 1.496382,-4.52395 1.496383,-1.60078 4.315151,-1.60078 2.818767,0 4.31515,1.60078 1.496383,1.60078 1.496383,4.52395 v 12.80625 q 0,2.92317 -1.496383,4.52395 -1.496383,1.60078 -4.31515,1.60078 z m 0,-3.47996 q 1.983577,0 1.983577,-2.40117 v -13.29345 q 0,-2.40117 -1.983577,-2.40117 -1.983577,0 -1.983577,2.40117 v 13.29345 q 0,2.40117 1.983577,2.40117 z"
               id="path909"
               inkscape:connector-curvature="0" />
            <path
               d="m 81.824259,216.16469 h 5.776733 q 2.957966,0 4.315151,1.39199 1.357184,1.35718 1.357184,4.21075 v 0.97439 q 0,1.87918 -0.626393,3.06236 -0.591593,1.18319 -1.844379,1.70518 v 0.0696 q 2.853568,0.97439 2.853568,5.08074 v 2.08798 q 0,2.81877 -1.496383,4.31515 -1.461583,1.46158 -4.31515,1.46158 h -6.020331 z m 5.324339,9.91789 q 1.148386,0 1.70518,-0.59159 0.591593,-0.5916 0.591593,-1.98358 v -1.35718 q 0,-1.32239 -0.487194,-1.91398 -0.452395,-0.5916 -1.461583,-0.5916 h -1.844379 v 6.43793 z m 0.695992,10.96187 q 1.009188,0 1.496382,-0.52199 0.487195,-0.55679 0.487195,-1.87918 v -2.12277 q 0,-1.67038 -0.591594,-2.29678 -0.556793,-0.66119 -1.879178,-0.66119 h -1.70518 v 7.48191 z"
               id="path911"
               inkscape:connector-curvature="0" />
            <path
               d="m 101.41641,240.87241 q -2.818769,0 -4.315152,-1.60078 -1.496382,-1.60078 -1.496382,-4.52395 v -12.80625 q 0,-2.92317 1.496382,-4.52395 1.496383,-1.60078 4.315152,-1.60078 2.81877,0 4.31515,1.60078 1.49638,1.60078 1.49638,4.52395 v 12.80625 q 0,2.92317 -1.49638,4.52395 -1.49638,1.60078 -4.31515,1.60078 z m 0,-3.47996 q 1.98358,0 1.98358,-2.40117 v -13.29345 q 0,-2.40117 -1.98358,-2.40117 -1.983579,0 -1.983579,2.40117 v 13.29345 q 0,2.40117 1.983579,2.40117 z"
               id="path913"
               inkscape:connector-curvature="0" />
            <path
               d="m 112.65661,219.64465 h -4.00196 v -3.47996 h 11.83187 v 3.47996 h -4.00196 v 20.87976 h -3.82795 z"
               id="path915"
               inkscape:connector-curvature="0" />
            <path
               d="m 122.33084,216.16469 h 3.82796 v 24.35972 h -3.82796 z"
               id="path917"
               inkscape:connector-curvature="0" />
            <path
               d="m 129.01235,216.16469 h 3.82795 v 10.26589 l 4.87195,-10.26589 h 3.82795 l -4.55875,8.9435 4.62835,15.41622 h -4.00195 l -3.23637,-10.85747 -1.53118,3.09716 v 7.76031 h -3.82795 z"
               id="path919"
               inkscape:connector-curvature="0" />
            <path
               d="m 146.37733,216.16469 h 5.18514 l 3.96716,24.35972 h -3.82796 l -0.69599,-4.83714 v 0.0696 h -4.34995 l -0.69599,4.76754 h -3.54956 z m 4.17595,16.28622 -1.70518,-12.04066 h -0.0696 l -1.67039,12.04066 z"
               id="path921"
               inkscape:connector-curvature="0" />
            <path
               d="m 156.12117,226.60457 h 7.65591 v 3.47996 h -7.65591 z"
               id="path923"
               inkscape:connector-curvature="0" />
            <path
               d="m 69.887927,275.67201 q -2.783968,0 -4.210751,-1.56598 -1.426784,-1.60078 -1.426784,-4.55875 v -1.39198 h 3.619158 v 1.67038 q 0,2.36637 1.983577,2.36637 0.974389,0 1.461584,-0.55679 0.521994,-0.5916 0.521994,-1.87918 0,-1.53119 -0.695992,-2.67957 -0.695992,-1.18319 -2.575171,-2.81877 -2.366372,-2.08798 -3.305962,-3.75836 -0.939589,-1.70518 -0.939589,-3.82795 0,-2.88837 1.461583,-4.45435 1.461584,-1.60078 4.245551,-1.60078 2.749169,0 4.141153,1.60078 1.426783,1.56598 1.426783,4.52395 v 1.00919 h -3.619158 v -1.25279 q 0,-1.25279 -0.487194,-1.80958 -0.487195,-0.59159 -1.426784,-0.59159 -1.913978,0 -1.913978,2.33157 0,1.32239 0.695992,2.47077 0.730792,1.14839 2.60997,2.78397 2.401172,2.08798 3.305962,3.79316 0.904789,1.70518 0.904789,4.00195 0,2.99277 -1.496382,4.59355 -1.461583,1.60078 -4.280351,1.60078 z"
               id="path925"
               inkscape:connector-curvature="0" />
            <path
               d="m 77.091435,271.91365 7.099118,-17.4694 h -6.751122 v -3.47996 h 10.857474 v 3.41036 l -7.099118,17.4694 h 7.099118 v 3.47996 h -11.20547 z"
               id="path927"
               inkscape:connector-curvature="0" />
            <path
               d="m 93.412429,250.96429 h 5.185141 l 3.96715,24.35972 h -3.827952 l -0.695992,-4.83714 v 0.0696 h -4.34995 l -0.695992,4.76754 h -3.549559 z m 4.175952,16.28622 -1.70518,-12.04067 h -0.0696 l -1.670381,12.04067 z"
               id="path929"
               inkscape:connector-curvature="0" />
            <path
               d="m 104.40907,250.96429 h 3.82796 v 10.26589 l 4.87194,-10.26589 h 3.82796 l -4.55875,8.9435 4.62835,15.41622 h -4.00196 l -3.23636,-10.85747 -1.53118,3.09716 v 7.76031 h -3.82796 z"
               id="path931"
               inkscape:connector-curvature="0" />
            <path
               d="m 118.81609,250.96429 h 3.82795 v 10.26589 l 4.87195,-10.26589 h 3.82795 l -4.55874,8.9435 4.62834,15.41622 h -4.00195 l -3.23636,-10.85747 -1.53119,3.09716 v 7.76031 h -3.82795 z"
               id="path933"
               inkscape:connector-curvature="0" />
            <path
               d="m 138.19942,275.67201 q -2.81877,0 -4.31515,-1.60078 -1.49638,-1.60078 -1.49638,-4.52395 v -12.80625 q 0,-2.92317 1.49638,-4.52395 1.49638,-1.60078 4.31515,-1.60078 2.81877,0 4.31515,1.60078 1.49638,1.60078 1.49638,4.52395 v 12.80625 q 0,2.92317 -1.49638,4.52395 -1.49638,1.60078 -4.31515,1.60078 z m 0,-3.47996 q 1.98358,0 1.98358,-2.40117 v -13.29345 q 0,-2.40117 -1.98358,-2.40117 -1.98358,0 -1.98358,2.40117 v 13.29345 q 0,2.40117 1.98358,2.40117 z m -4.38475,-26.4129 h 3.41036 v 3.54956 h -3.41036 z m 5.35914,0 h 3.41036 v 3.54956 h -3.41036 z"
               id="path935"
               inkscape:connector-curvature="0" />
            <path
               d="m 146.58611,250.96429 h 5.67234 q 2.95796,0 4.31515,1.39199 1.35718,1.35718 1.35718,4.21075 v 1.49638 q 0,3.79316 -2.50557,4.80235 v 0.0696 q 1.39199,0.41759 1.94878,1.70518 0.59159,1.28758 0.59159,3.44516 v 4.28035 q 0,1.04398 0.0696,1.70518 0.0696,0.62639 0.348,1.25278 h -3.89756 q -0.20879,-0.59159 -0.27839,-1.11358 -0.0696,-0.522 -0.0696,-1.87918 v -4.45435 q 0,-1.67038 -0.5568,-2.33157 -0.52199,-0.6612 -1.84437,-0.6612 h -1.32239 v 10.43988 h -3.82796 z m 5.21994,10.43988 q 1.14839,0 1.70518,-0.59159 0.5916,-0.59159 0.5916,-1.98358 v -1.87918 q 0,-1.32238 -0.4872,-1.91397 -0.45239,-0.5916 -1.46158,-0.5916 h -1.73998 v 6.95992 z"
               id="path937"
               inkscape:connector-curvature="0" />
          </g>
          <g
             aria-label="Robotika-  szakkör"
             id="text1878-0"
             style="font-size:34.79959869px;line-height:1;font-family:'Bebas Neue';-inkscape-font-specification:'Bebas Neue';text-align:center;letter-spacing:0px;word-spacing:0px;text-anchor:middle;fill:#ffffff;stroke:#000000;stroke-width:0.46606499"
             transform="translate(-3.1267223)">
            <path
               d="m 52.821879,215.10638 h 5.672334 q 2.957966,0 4.31515,1.39198 1.357185,1.35718 1.357185,4.21075 v 1.49638 q 0,3.79316 -2.505571,4.80235 v 0.0696 q 1.391984,0.41759 1.948777,1.70518 0.591593,1.28758 0.591593,3.44516 v 4.28035 q 0,1.04399 0.0696,1.70518 0.0696,0.62639 0.347996,1.25278 h -3.897555 q -0.208798,-0.59159 -0.278397,-1.11358 -0.0696,-0.522 -0.0696,-1.87918 v -4.45435 q 0,-1.67038 -0.556794,-2.33157 -0.521994,-0.66119 -1.844379,-0.66119 h -1.322385 v 10.43987 h -3.827955 z m 5.219939,10.43988 q 1.148387,0 1.705181,-0.5916 0.591593,-0.59159 0.591593,-1.98357 v -1.87918 q 0,-1.32239 -0.487194,-1.91398 -0.452395,-0.59159 -1.461584,-0.59159 h -1.73998 v 6.95992 z"
               id="path856"
               inkscape:connector-curvature="0" />
            <path
               d="m 72.379249,239.81409 q -2.818768,0 -4.315151,-1.60078 -1.496382,-1.60078 -1.496382,-4.52395 v -12.80625 q 0,-2.92317 1.496382,-4.52395 1.496383,-1.60078 4.315151,-1.60078 2.818767,0 4.31515,1.60078 1.496383,1.60078 1.496383,4.52395 v 12.80625 q 0,2.92317 -1.496383,4.52395 -1.496383,1.60078 -4.31515,1.60078 z m 0,-3.47996 q 1.983577,0 1.983577,-2.40117 v -13.29345 q 0,-2.40117 -1.983577,-2.40117 -1.983578,0 -1.983578,2.40117 v 13.29345 q 0,2.40117 1.983578,2.40117 z"
               id="path858"
               inkscape:connector-curvature="0" />
            <path
               d="m 80.76594,215.10638 h 5.776733 q 2.957966,0 4.315151,1.39198 1.357184,1.35718 1.357184,4.21075 v 0.97439 q 0,1.87918 -0.626393,3.06236 -0.591593,1.18319 -1.844379,1.70519 v 0.0696 q 2.853567,0.97439 2.853567,5.08075 v 2.08797 q 0,2.81877 -1.496382,4.31515 -1.461583,1.46158 -4.315151,1.46158 h -6.02033 z m 5.324338,9.91788 q 1.148387,0 1.705181,-0.59159 0.591593,-0.59159 0.591593,-1.98358 v -1.35718 q 0,-1.32239 -0.487194,-1.91398 -0.452395,-0.59159 -1.461584,-0.59159 h -1.844378 v 6.43792 z m 0.695992,10.96188 q 1.009189,0 1.496383,-0.522 0.487195,-0.55679 0.487195,-1.87918 v -2.12277 q 0,-1.67038 -0.591594,-2.29678 -0.556793,-0.66119 -1.879178,-0.66119 h -1.70518 v 7.48192 z"
               id="path860"
               inkscape:connector-curvature="0" />
            <path
               d="m 100.35809,239.81409 q -2.818768,0 -4.315151,-1.60078 -1.496383,-1.60078 -1.496383,-4.52395 v -12.80625 q 0,-2.92317 1.496383,-4.52395 1.496383,-1.60078 4.315151,-1.60078 2.81877,0 4.31515,1.60078 1.49638,1.60078 1.49638,4.52395 v 12.80625 q 0,2.92317 -1.49638,4.52395 -1.49638,1.60078 -4.31515,1.60078 z m 0,-3.47996 q 1.98358,0 1.98358,-2.40117 v -13.29345 q 0,-2.40117 -1.98358,-2.40117 -1.983578,0 -1.983578,2.40117 v 13.29345 q 0,2.40117 1.983578,2.40117 z"
               id="path862"
               inkscape:connector-curvature="0" />
            <path
               d="m 111.59829,218.58634 h -4.00195 v -3.47996 h 11.83186 v 3.47996 h -4.00195 v 20.87975 h -3.82796 z"
               id="path864"
               inkscape:connector-curvature="0" />
            <path
               d="m 121.27252,215.10638 h 3.82796 v 24.35971 h -3.82796 z"
               id="path866"
               inkscape:connector-curvature="0" />
            <path
               d="m 127.95403,215.10638 h 3.82795 v 10.26588 l 4.87195,-10.26588 h 3.82795 l -4.55874,8.94349 4.62834,15.41622 h -4.00195 l -3.23636,-10.85747 -1.53119,3.09716 v 7.76031 h -3.82795 z"
               id="path868"
               inkscape:connector-curvature="0" />
            <path
               d="m 145.31901,215.10638 h 5.18514 l 3.96716,24.35971 h -3.82796 l -0.69599,-4.83714 v 0.0696 h -4.34995 l -0.69599,4.76754 h -3.54956 z m 4.17596,16.28621 -1.70518,-12.04066 h -0.0696 l -1.67038,12.04066 z"
               id="path870"
               inkscape:connector-curvature="0" />
            <path
               d="m 155.06285,225.54626 h 7.65591 v 3.47996 h -7.65591 z"
               id="path872"
               inkscape:connector-curvature="0" />
            <path
               d="m 68.829608,274.61369 q -2.783968,0 -4.210751,-1.56598 -1.426784,-1.60078 -1.426784,-4.55875 v -1.39198 h 3.619158 v 1.67038 q 0,2.36637 1.983577,2.36637 0.974389,0 1.461584,-0.55679 0.521994,-0.5916 0.521994,-1.87918 0,-1.53118 -0.695992,-2.67957 -0.695992,-1.18319 -2.575171,-2.81877 -2.366372,-2.08797 -3.305962,-3.75836 -0.939589,-1.70518 -0.939589,-3.82795 0,-2.88837 1.461583,-4.45435 1.461583,-1.60078 4.245551,-1.60078 2.749169,0 4.141153,1.60078 1.426783,1.56598 1.426783,4.52395 v 1.00919 h -3.619158 v -1.25279 q 0,-1.25278 -0.487194,-1.80958 -0.487195,-0.59159 -1.426784,-0.59159 -1.913978,0 -1.913978,2.33157 0,1.32239 0.695992,2.47077 0.730792,1.14839 2.60997,2.78397 2.401172,2.08798 3.305962,3.79316 0.904789,1.70518 0.904789,4.00195 0,2.99277 -1.496382,4.59355 -1.461584,1.60078 -4.280351,1.60078 z"
               id="path874"
               inkscape:connector-curvature="0" />
            <path
               d="m 76.033115,270.85533 7.099119,-17.4694 h -6.751123 v -3.47996 h 10.857475 v 3.41037 l -7.099118,17.46939 h 7.099118 v 3.47996 H 76.033115 Z"
               id="path876"
               inkscape:connector-curvature="0" />
            <path
               d="m 92.35411,249.90597 h 5.185141 l 3.967149,24.35972 h -3.827951 l -0.695992,-4.83714 v 0.0696 h -4.34995 l -0.695992,4.76754 h -3.549559 z m 4.175952,16.28622 -1.70518,-12.04066 h -0.0696 l -1.670381,12.04066 z"
               id="path878"
               inkscape:connector-curvature="0" />
            <path
               d="m 103.35075,249.90597 h 3.82796 v 10.26589 l 4.87194,-10.26589 h 3.82796 l -4.55875,8.9435 4.62835,15.41622 h -4.00196 l -3.23636,-10.85747 -1.53118,3.09716 v 7.76031 h -3.82796 z"
               id="path880"
               inkscape:connector-curvature="0" />
            <path
               d="m 117.75777,249.90597 h 3.82795 v 10.26589 l 4.87195,-10.26589 h 3.82795 l -4.55874,8.9435 4.62834,15.41622 h -4.00195 l -3.23636,-10.85747 -1.53119,3.09716 v 7.76031 h -3.82795 z"
               id="path882"
               inkscape:connector-curvature="0" />
            <path
               d="m 137.1411,274.61369 q -2.81877,0 -4.31515,-1.60078 -1.49638,-1.60078 -1.49638,-4.52395 v -12.80625 q 0,-2.92317 1.49638,-4.52395 1.49638,-1.60078 4.31515,-1.60078 2.81877,0 4.31515,1.60078 1.49638,1.60078 1.49638,4.52395 v 12.80625 q 0,2.92317 -1.49638,4.52395 -1.49638,1.60078 -4.31515,1.60078 z m 0,-3.47996 q 1.98358,0 1.98358,-2.40117 v -13.29345 q 0,-2.40117 -1.98358,-2.40117 -1.98358,0 -1.98358,2.40117 v 13.29345 q 0,2.40117 1.98358,2.40117 z m -4.38475,-26.4129 h 3.41036 v 3.54956 h -3.41036 z m 5.35914,0 h 3.41036 v 3.54956 h -3.41036 z"
               id="path884"
               inkscape:connector-curvature="0" />
            <path
               d="m 145.5278,249.90597 h 5.67233 q 2.95797,0 4.31515,1.39199 1.35718,1.35718 1.35718,4.21075 v 1.49638 q 0,3.79316 -2.50557,4.80235 v 0.0696 q 1.39199,0.41759 1.94878,1.70518 0.59159,1.28758 0.59159,3.44516 v 4.28035 q 0,1.04399 0.0696,1.70518 0.0696,0.62639 0.348,1.25278 h -3.89756 q -0.20879,-0.59159 -0.27839,-1.11358 -0.0696,-0.522 -0.0696,-1.87918 v -4.45435 q 0,-1.67038 -0.5568,-2.33157 -0.52199,-0.6612 -1.84437,-0.6612 h -1.32239 v 10.43988 h -3.82795 z m 5.21994,10.43988 q 1.14838,0 1.70518,-0.59159 0.59159,-0.59159 0.59159,-1.98358 v -1.87917 q 0,-1.32239 -0.4872,-1.91398 -0.45239,-0.5916 -1.46158,-0.5916 h -1.73998 v 6.95992 z"
               id="path886"
               inkscape:connector-curvature="0" />
          </g>
        </g>
      </g>
    </g>
  </g>
</svg>
